<svg
   width="144"
   height="144"
   viewBox="0 0 144 144"
   xmlns="http://www.w3.org/2000/svg">
  <circle
     style="fill:#ffffff;fill-opacity:1;stroke:none;stroke-width:3"
     id="path3"
     cx="497.6944"
     cy="497.6944"
     r="497.6944" />
  <path
     d="m 954.25441,498.19 c -0.5625,-250.5 -203.62,-454.120002 -453.56,-456.190002 h -7.5 C 243.25441,44.062498 40.194407,247.69 39.634407,498.19 c 0,0.375 -0.1875,0.75 -0.1875,1.125 0,0.375 0.1875,0.75 0.1875,1.125 0.75,251.62 205.500003,456.19 457.310003,456.19 251.81,0 456.56,-204.56 457.31,-456.19 0,-0.375 0.1875,-0.75 0.1875,-1.125 0,-0.375 -0.1875,-0.75 -0.1875,-1.125 z M 829.19441,243 c -26.438,4.6875 -53.062,9 -79.688,12.188 -30.562,4.125 -62.25,7.5 -94.312,9.9375 -18.188,-78.562 -44.812,-139.5 -76.688,-177.560002 101.44,20.062002 189.75,76.688002 250.69,155.440002 z m -192.38,396 c 5.4375,-5.4375 14.438,-5.4375 19.875,0 l 19.5,19.5 c 5.4375,5.4375 5.4375,14.25 0,19.875 -2.8125,2.625 -6.375,4.125 -9.9375,4.125 -3.5625,0 -7.3125,-1.5 -9.9375,-4.125 l -19.5,-19.5 c -5.4375,-5.4375 -5.4375,-14.438 0,-19.875 z m -0.1875,-299.44 19.5,-19.5 c 5.4375,-5.4375 14.25,-5.4375 19.875,0 5.4375,5.4375 5.4375,14.438 0,19.875 l -19.5,19.5 c -2.8125,2.8125 -6.375,4.125 -9.9375,4.125 -3.5625,0 -7.3125,-1.3125 -9.9375,-4.125 -5.4375,-5.4375 -5.4375,-14.438 0,-19.875 z m -143.81,-259.880002 c 1.5,-0.1875 2.8125,-0.1875 4.125,-0.1875 1.3125,0 2.625,0 4.125,0.1875 42.188,3.75 84.188,68.438002 111.19,168.190002 -35.25,-16.312 -74.062,-25.5 -115.31,-25.5 -41.248,0 -80.062,9.1875 -115.31,25.5 27,-99.75 69,-164.440002 111.19,-168.190002 z m 4.125,479.810002 c -9.75,0 -18.938,-2.4375 -27,-6.5625 l -57,56.812 c -3.5625,3.75 -8.4375,5.625 -13.312,5.625 -4.6875,0 -9.5625,-1.875 -13.125,-5.625 -7.3125,-7.3125 -7.3125,-19.125 0,-26.438 l 56.812,-57 c -4.125,-8.0625 -6.5625,-17.25 -6.5625,-27 0,-26.625 17.438,-48.938 41.438,-57 v -95.062 c 0,-10.312 8.4375,-18.75 18.75,-18.75 10.3125,0 18.75,8.4375 18.75,18.75 v 95.062 c 24,8.0625 41.438,30.375 41.438,57 0,33.188 -27,60.188 -60.188,60.188 z m 14.25,151.5 v 27.562 c 0,7.6875 -6.375,14.062 -14.062,14.062 -7.875,0 -14.062,-6.375 -14.062,-14.062 V 710.99 c 0,-7.6875 6.1875,-14.062 14.062,-14.062 7.6875,0 14.062,6.375 14.062,14.062 z m -28.5,-423.38 v -27.562 c 0,-7.6875 6.375,-14.062 14.062,-14.062 7.875,0 14.062,6.375 14.062,14.062 v 27.562 c 0,7.6875 -6.1875,14.062 -14.062,14.062 -7.6875,0 -14.062,-6.375 -14.062,-14.062 z m -67.312,-200.060002 c -31.875,38.062002 -58.5,99.000002 -76.688,177.560002 -32.062,-2.4375 -63.75,-5.8125 -94.688,-9.9375 -26.25,-3.375 -52.875,-7.5 -79.312,-12.188 60.938,-78.75 149.25,-135.38 250.69,-155.440002 z m -97.5,571.120002 19.5,-19.5 c 5.4375,-5.4375 14.438,-5.4375 19.875,0 5.437,5.4375 5.4375,14.438 0,19.875 l -19.5,19.5 c -2.625,2.8125 -6.375,4.125 -9.9375,4.125 -3.5625,0 -7.125,-1.3125 -9.9375,-4.125 -5.4375,-5.4375 -5.4375,-14.438 0,-19.875 z m -0.1875,-338.44 c 5.4375,-5.4375 14.438,-5.4375 19.875,0 l 19.5,19.5 c 5.4375,5.4375 5.4375,14.438 0,19.875 -2.8125,2.8125 -6.375,4.125 -9.9375,4.125 -3.5625,0 -7.125,-1.3125 -9.9375,-4.125 l -19.5,-19.5 c -5.4375,-5.4375 -5.4375,-14.25 0,-19.875 z m -176.62,-43.312 c 32.625,6.1875 65.625,11.438 98.062,15.375 21.562,3 43.875,5.4375 66.188,7.5 -48.188,46.5 -79.5,109.88 -84.375,180.75 H 77.697407 c 3.1875,-74.625 26.062003,-144 63.375003,-203.62 z m 158.25,222.56 c 0,7.6875 -6.375,14.062 -14.062,14.062 h -27.562 c -7.6875,0 -14.062,-6.375 -14.062,-14.062 0,-7.875 6.375,-14.062 14.062,-14.062 h 27.562 c 7.6875,0 14.062,6.1875 14.062,14.062 z M 77.702407,518.04 H 220.95241 c 4.875,70.875 36.188,134.25 84.375,180.75 -22.312,2.0625 -44.438,4.5 -65.812,7.5 -32.625,3.9375 -65.625,9.1875 -98.438,15.375 -37.312,-59.625 -60.188003,-129.19 -63.375003,-203.62 z m 87.000003,237.38 c 26.625,-4.5 53.25,-8.8125 79.688,-12 30.562,-4.125 62.25,-7.5 94.312,-9.9375 18.188,78.375 44.812,139.31 76.688,177.56 -101.44,-20.062 -189.75,-76.688 -250.69,-155.62 z m 336.38,163.5 c -1.5,0.1875 -2.8125,0.1875 -4.125,0.1875 -1.3125,0 -2.625,0 -4.125,-0.1875 -42.188,-3.75 -84.188,-68.438 -111.19,-168.19 35.25,16.125 74.062,25.5 115.31,25.5 41.248,0 80.062,-9.375 115.31,-25.5 -27,99.75 -69,164.44 -111.19,168.19 z m 77.438,-7.875 c 31.875,-38.25 58.5,-99.188 76.688,-177.56 32.062,2.4375 63.75,5.8125 94.688,9.9375 26.25,3.1875 52.688,7.5 79.312,12 -60.938,78.938 -149.25,135.56 -250.69,155.62 z m 274.31,-189.38 c -32.812,-6.1875 -65.812,-11.438 -98.062,-15.375 -21.562,-3 -43.875,-5.4375 -66.188,-7.5 48.188,-46.5 79.5,-109.88 84.375,-180.75 h 143.25 c -3.1875,74.438 -26.062,144 -63.375,203.62 z m -158.25,-222.56 c 0,-7.6875 6.375,-14.062 14.062,-14.062 h 27.562 c 7.6875,0 14.062,6.375 14.062,14.062 0,7.875 -6.375,14.062 -14.062,14.062 h -27.562 c -7.6875,0 -14.062,-6.1875 -14.062,-14.062 z m 78.375,-18.562 c -4.875,-70.875 -36.188,-134.25 -84.375,-180.75 22.312,-2.0625 44.438,-4.5 65.812,-7.5 32.812,-3.9375 65.812,-9.1875 98.438,-15.375 37.312,59.625 60.188,129 63.375,203.62 z"
     id="path1" />
  <path
     d="m 519.64441,499.31 c 0,12.562 -10.125,22.688 -22.688,22.688 -12.563,0 -22.688,-10.125 -22.688,-22.688 0,-12.563 10.125,-22.688 22.688,-22.688 12.563,0 22.688,10.125 22.688,22.688 z"
     id="path2" />
</svg>
