<?xml version="1.0" encoding="UTF-8" standalone="no"?>
<svg
    width="900pt"
    height="900pt"
    version="1.1"
    viewBox="0 0 899.99965 899.99965"
    id="svg1"
    xmlns="http://www.w3.org/2000/svg">
  <defs
      id="defs1"/>
  <g
      id="g1"
      transform="translate(146.19124,28.83707)">
    <rect
        style="fill:#ebebeb;fill-opacity:1;stroke:none;stroke-width:3.75;paint-order:stroke markers fill"
        id="rect1"
        width="894.23083"
        height="894.23083"
        x="2.88462"
        y="2.8846154"
        ry="147.11539"
        transform="translate(-146.19124,-28.83707)"/>
    <path
        d="m 303.89446,146.02044 c -156.4471,0 -283.578552,127.17835 -283.578552,283.68174 0,156.51277 127.131452,283.46598 283.578552,283.46598 156.4471,0 283.57855,-126.96259 283.57855,-283.46598 0,-156.50339 -127.13145,-283.68174 -283.57855,-283.68174 z m -14.17752,28.59051 v 255.0978 H 48.681268 c 0,-17.64756 1.700308,-35.00618 5.097266,-51.63965 l 9.304085,-4.65382 13.0715,6.42749 -1.773574,-15.07153 9.747807,-11.30505 -14.17752,-2.88026 -5.317156,-9.75155 c 3.037852,-8.21936 6.577682,-16.14191 10.411044,-23.93659 l 4.873717,5.32082 -1.550025,15.29198 13.0715,-6.64729 13.071498,6.42749 -1.77357,-15.07153 9.7478,-11.30505 -14.177516,-2.88025 -7.310621,-13.07526 -6.867181,13.29852 -5.536953,1.10668 c 6.819525,-12.79288 14.888601,-24.75367 23.705811,-36.12439 l 5.98039,6.42749 -1.55002,15.29199 13.0715,-6.64729 13.0715,6.42749 -1.77357,-15.07153 9.74781,-11.30506 -14.17752,-2.88025 -7.09074,-12.63528 c 5.34277,-5.57363 11.01144,-10.88666 16.83798,-15.95898 0.066,4.89577 -0.81717,10.45139 -1.33023,15.5115 l 13.0715,-6.64729 13.0715,6.4275 -1.77357,-15.07153 9.74781,-11.30506 c -4.68685,-0.60096 -10.51705,-2.2976 -14.40173,-3.54715 18.92713,-13.6428 39.92089,-24.72083 62.25144,-32.8007 l 4.65383,5.09727 -1.55003,15.29198 13.0715,-6.64729 13.0715,6.4275 -1.77357,-15.07153 9.74781,-11.30506 -9.52736,-1.99346 c 14.54807,-3.45193 29.57551,-5.8045 44.9735,-6.64729 z m 28.3588,0 c 46.9088,2.57612 90.40197,17.82392 127.15958,42.3318 H 318.07574 Z m -113.65094,35.23695 -6.86718,13.29852 -14.17752,3.1038 9.97107,10.86133 -1.55002,15.29198 13.0715,-6.64729 13.0715,6.4275 -1.77358,-15.07153 9.74781,-11.30506 -14.17752,-2.88025 z m 56.71477,0 -6.86718,13.29852 -14.17752,3.1038 9.97108,10.86133 -1.55003,15.29198 13.0715,-6.64729 13.0715,6.4275 -1.77357,-15.07153 9.7478,-11.30506 -14.17752,-2.88025 z m 56.93429,35.46115 h 162.39466 c 13.41578,12.8623 25.30997,27.03232 35.66942,42.55132 H 318.07667 Z m -142.00973,7.09073 -6.86718,13.29852 -14.17752,3.1038 9.97108,10.86134 -1.55003,15.29198 13.0715,-6.64729 13.0715,6.42749 -1.77357,-15.07153 9.7478,-11.30505 -14.17752,-2.88025 z m 56.71477,0 -6.86718,13.29852 -14.17752,3.1038 9.97108,10.86134 -1.55003,15.29198 13.0715,-6.64729 13.0715,6.42749 -1.77357,-15.07153 9.7478,-11.30505 -14.17752,-2.88025 z m -114.31699,1.99347 -5.98039,11.30505 -5.09727,1.10668 c 3.54349,-4.27643 7.26663,-8.37696 11.07804,-12.41108 z m 29.24249,40.55785 -6.86718,13.29852 -14.17752,3.10381 9.97107,10.86133 -1.55002,15.29198 13.0715,-6.64729 13.0715,6.4275 -1.77358,-15.07153 9.74781,-11.30506 -14.17752,-2.88025 z m 56.71477,0 -6.86718,13.29852 -14.17752,3.10381 9.97108,10.86133 -1.55003,15.29198 13.0715,-6.64729 13.0715,6.4275 -1.77357,-15.07153 9.7478,-11.30506 -14.17752,-2.88025 z m 56.71477,0 -6.86718,13.29852 -14.17752,3.10381 9.97108,10.86133 -1.55003,15.29198 13.0715,-6.64729 13.0715,6.4275 -1.77357,-15.07153 9.74781,-11.30506 -14.17752,-2.88025 z m 56.93429,21.27614 H 532.5275 c 6.70226,13.53304 12.36792,27.78749 16.6147,42.55132 H 318.06917 Z m -198.72732,21.27613 -6.86718,13.29852 -14.17752,3.1038 9.97108,10.86133 -1.55003,15.29198 13.0715,-6.64729 13.0715,6.4275 -1.77357,-15.07153 9.74781,-11.30506 -14.17752,-2.88025 z m 56.71478,0 -6.86718,13.29852 -14.17752,3.1038 9.97107,10.86133 -1.55002,15.29198 13.0715,-6.64729 13.0715,6.4275 -1.77358,-15.07153 9.74781,-11.30506 -14.17752,-2.88025 z m 56.71477,0 -6.86718,13.29852 -14.17752,3.1038 9.97107,10.86133 -1.55002,15.29198 13.0715,-6.64729 13.0715,6.4275 -1.77358,-15.07153 9.74781,-11.30506 -14.17752,-2.88025 z m -141.784589,42.55132 -6.867181,13.29852 -14.17752,3.1038 9.971075,10.86133 -1.550024,15.29199 13.071499,-6.64729 13.0715,6.42749 -1.77357,-15.07153 9.7478,-11.30506 -14.177517,-2.88025 z m 56.714779,0 -6.86718,13.29852 -14.17752,3.1038 9.97107,10.86133 -1.55002,15.29199 13.0715,-6.64729 13.0715,6.42749 -1.77358,-15.07153 9.74781,-11.30506 -14.17752,-2.88025 z m 56.71477,0 -6.86718,13.29852 -14.17752,3.1038 9.97107,10.86133 -1.55002,15.29199 13.0715,-6.64729 13.0715,6.42749 -1.77358,-15.07153 9.74781,-11.30506 -14.17752,-2.88025 z m 56.71477,0 -6.86718,13.29852 -14.17752,3.1038 9.97108,10.86133 -1.55003,15.29199 13.0715,-6.64729 13.0715,6.42749 -1.77357,-15.07153 9.7478,-11.30506 -14.17752,-2.88025 z m 56.93429,7.09073 h 237.48965 c 2.30491,13.81541 3.54348,28.07736 3.54348,42.55132 H 318.06195 Z M 50.217878,458.06773 h 253.662512 1.33023 252.33978 c -1.60865,14.58841 -4.46695,28.81752 -8.41729,42.55132 H 58.637616 c -3.95025,-13.73849 -6.812208,-27.96385 -8.417299,-42.55132 z m 18.608171,70.92231 H 538.9366 c -6.30657,14.93269 -13.91391,29.23498 -22.81836,42.55132 H 91.646294 C 82.741651,558.22502 75.13384,543.92273 68.827925,528.99004 Z m 44.750231,70.92231 h 380.60634 c -14.5218,16.24416 -31.1806,30.46296 -49.40415,42.55133 H 162.98231 c -18.22355,-12.08931 -34.88234,-26.30717 -49.40415,-42.55133 z m 106.5589,70.92231 h 167.48855 c -26.24525,9.10249 -54.36952,14.18503 -83.74428,14.18503 -29.37475,0 -57.49527,-5.08263 -83.74427,-14.18503 z"
        id="path1"
        style="stroke-width:0.938101"/>
    <text
        xml:space="preserve"
        style="font-weight:bold;font-size:126.364px;font-family:Arial;-inkscape-font-specification:'Arial Bold';text-align:center;writing-mode:lr-tb;direction:ltr;text-anchor:middle;fill:#000000;fill-opacity:1;stroke:none;stroke-width:11.6012;paint-order:stroke markers fill"
        x="308.15186"
        y="125.06935"
        id="text1"><tspan
         id="tspan1"
         style="fill:#000000;fill-opacity:1;stroke:none;stroke-width:11.6012"
         x="308.15189"
         y="125.06935">American</tspan></text>
    <text
        xml:space="preserve"
        style="font-weight:bold;font-size:126.364px;font-family:Arial;-inkscape-font-specification:'Arial Bold';text-align:center;writing-mode:lr-tb;direction:ltr;text-anchor:middle;fill:#000000;fill-opacity:1;stroke:none;stroke-width:11.6012;paint-order:stroke markers fill"
        x="300.03812"
        y="820.04688"
        id="text1-0"><tspan
         id="tspan1-3"
         style="fill:#000000;fill-opacity:1;stroke:none;stroke-width:11.6012"
         x="300.03812"
         y="820.04688">Built</tspan></text>
  </g>
</svg>
